<svg xmlns="http://www.w3.org/2000/svg" width="30px" height="30px" viewBox="0 0 60 60"><style>.a{fill:#D1D4D1;}</style><rect x="47" y="41.9" width="10" height="14" fill="#F0C419"/><rect x="32" y="32.9" width="10" height="23" fill="#F29C1F"/><rect x="17" y="24.9" width="10" height="31" fill="#E57E25"/><rect x="2" y="16.9" width="10" height="39" fill="#D25627"/><path d="M59 56.9H1c-0.6 0-1-0.4-1-1s0.4-1 1-1h58c0.6 0 1 0.4 1 1S59.6 56.9 59 56.9z" fill="#556080"/><path d="M51.3 27.6c-0.2 0-0.3 0-0.5-0.1l-39-22.5c-0.5-0.3-0.6-0.9-0.4-1.4 0.3-0.5 0.9-0.6 1.4-0.4l39 22.5c0.5 0.3 0.6 0.9 0.4 1.4C51.9 27.4 51.6 27.6 51.3 27.6z" class="a"/><path d="M42.7 28.5c-0.5 0-0.9-0.4-1-0.9 -0.1-0.5 0.3-1 0.9-1.1l8.6-0.8c0.6-0.1 1 0.4 1.1 0.9 0.1 0.6-0.3 1-0.9 1.1l-8.6 0.8C42.8 28.5 42.7 28.5 42.7 28.5z" class="a"/><path d="M51.3 27.6c-0.4 0-0.7-0.2-0.9-0.6l-3.6-7.8c-0.2-0.5 0-1.1 0.5-1.3 0.5-0.2 1.1 0 1.3 0.5l3.6 7.8c0.2 0.5 0 1.1-0.5 1.3C51.5 27.6 51.4 27.6 51.3 27.6z" class="a"/></svg>