<svg xmlns="http://www.w3.org/2000/svg" width="30px" height="30px" viewBox="0 0 60 60"><style>.a{fill:#BDC3C7;}</style><rect x="3" y="42.5" width="10" height="14" fill="#7ED09E"/><rect x="18" y="33.5" width="10" height="23" fill="#71C285"/><rect x="33" y="25.5" width="10" height="31" fill="#4FBA6F"/><rect x="48" y="17.5" width="10" height="39" fill="#24AE5F"/><path d="M59 57.5H1c-0.6 0-1-0.4-1-1s0.4-1 1-1h58c0.6 0 1 0.4 1 1S59.6 57.5 59 57.5z" fill="#556080"/><path d="M8 27.8c-0.3 0-0.7-0.2-0.9-0.5 -0.3-0.5-0.1-1.1 0.4-1.4L46.5 3.5c0.5-0.3 1.1-0.1 1.4 0.4 0.3 0.5 0.1 1.1-0.4 1.4l-39 22.5C8.4 27.8 8.2 27.8 8 27.8z" class="a"/><path d="M47 5.3c0 0-0.1 0-0.1 0l-8.6-0.8c-0.5-0.1-1-0.5-0.9-1.1 0.1-0.5 0.5-1 1.1-0.9l8.6 0.8c0.5 0.1 1 0.5 0.9 1.1C47.9 4.9 47.5 5.3 47 5.3z" class="a"/><path d="M43.4 13.2c-0.1 0-0.3 0-0.4-0.1 -0.5-0.2-0.7-0.8-0.5-1.3l3.6-7.8c0.2-0.5 0.8-0.7 1.3-0.5 0.5 0.2 0.7 0.8 0.5 1.3l-3.6 7.8C44.2 12.9 43.8 13.2 43.4 13.2z" class="a"/></svg>